<?xml version="1.0" encoding="utf-8"?>
<!-- Generator: Adobe Illustrator 23.0.0, SVG Export Plug-In . SVG Version: 6.00 Build 0)  -->
<svg version="1.1" id="Layer_1" xmlns="http://www.w3.org/2000/svg" xmlns:xlink="http://www.w3.org/1999/xlink" x="0px" y="0px"
	 viewBox="0 0 1810 512" style="enable-background:new 0 0 1810 512;" xml:space="preserve">
<style type="text/css">
	.st0{fill:#FFFFFF;}
</style>
<g>
	<g>
		<path class="st0" d="M580.98,176.21v-67.84h13.19v56.28h34.59v11.56H580.98z"/>
		<path class="st0" d="M656.76,177.17c-4.01,0-7.64-0.69-10.89-2.05s-6.02-3.23-8.31-5.59c-2.29-2.36-4.06-5.1-5.3-8.22
			c-1.24-3.12-1.86-6.4-1.86-9.84c0-3.57,0.6-6.93,1.82-10.08c1.21-3.15,2.96-5.92,5.26-8.31c2.29-2.39,5.08-4.28,8.36-5.69
			c3.28-1.4,6.96-2.1,11.04-2.1c4.08,0,7.72,0.7,10.94,2.1c3.22,1.4,5.96,3.28,8.22,5.64c2.26,2.36,3.98,5.1,5.16,8.22
			c1.18,3.12,1.77,6.37,1.77,9.75c0,0.83-0.02,1.62-0.05,2.39c-0.03,0.76-0.11,1.4-0.24,1.91h-38.7c0.19,1.98,0.67,3.73,1.43,5.26
			c0.76,1.53,1.75,2.83,2.96,3.92c1.21,1.08,2.58,1.91,4.11,2.48c1.53,0.57,3.12,0.86,4.78,0.86c2.55,0,4.95-0.62,7.21-1.86
			c2.26-1.24,3.81-2.88,4.63-4.92l10.99,3.06c-1.85,3.82-4.79,6.96-8.84,9.41C667.19,175.94,662.37,177.17,656.76,177.17z
			 M669.76,146.97c-0.32-3.76-1.71-6.77-4.16-9.03c-2.45-2.26-5.43-3.39-8.93-3.39c-1.72,0-3.33,0.3-4.83,0.91
			c-1.5,0.61-2.82,1.45-3.97,2.53c-1.15,1.08-2.09,2.39-2.82,3.92c-0.73,1.53-1.16,3.22-1.29,5.06H669.76z"/>
		<path class="st0" d="M768.56,176.21h-12.8v-28.09c0-4.01-0.69-6.94-2.05-8.79c-1.37-1.85-3.26-2.77-5.69-2.77
			c-2.55,0-4.94,0.97-7.17,2.91c-2.23,1.94-3.82,4.48-4.78,7.6v29.14h-12.8v-28.09c0-4.01-0.68-6.94-2.05-8.79
			c-1.37-1.85-3.27-2.77-5.69-2.77c-2.48,0-4.86,0.96-7.12,2.87c-2.26,1.91-3.87,4.43-4.83,7.55v29.24h-12.8v-50.07h11.56v9.27
			c1.85-3.25,4.38-5.75,7.6-7.5c3.22-1.75,6.9-2.63,11.04-2.63c4.2,0,7.45,1.02,9.75,3.06c2.29,2.04,3.76,4.56,4.4,7.55
			c2.04-3.44,4.62-6.07,7.74-7.88c3.12-1.82,6.69-2.72,10.7-2.72c3.06,0,5.57,0.57,7.55,1.72c1.97,1.15,3.5,2.64,4.59,4.49
			c1.08,1.85,1.83,3.95,2.25,6.31c0.41,2.36,0.62,4.75,0.62,7.17V176.21z"/>
		<path class="st0" d="M808.22,177.17c-3.82,0-7.23-0.86-10.22-2.58c-3-1.72-5.35-4.08-7.07-7.07v8.7h-11.18v-69.76h12.8v28.48
			c1.78-3.06,4.12-5.43,7.02-7.12c2.9-1.69,6.29-2.53,10.18-2.53c3.25,0,6.21,0.7,8.89,2.1c2.68,1.4,4.98,3.28,6.93,5.64
			c1.94,2.36,3.44,5.13,4.49,8.31c1.05,3.19,1.58,6.53,1.58,10.03c0,3.63-0.59,7.01-1.77,10.13c-1.18,3.12-2.82,5.85-4.92,8.17
			c-2.1,2.33-4.59,4.16-7.45,5.49C814.62,176.5,811.53,177.17,808.22,177.17z M804.68,166.27c2.04,0,3.92-0.4,5.64-1.19
			c1.72-0.8,3.19-1.86,4.4-3.2c1.21-1.34,2.15-2.9,2.82-4.68c0.67-1.78,1-3.69,1-5.73c0-2.04-0.32-3.98-0.96-5.83
			c-0.64-1.85-1.54-3.47-2.72-4.87c-1.18-1.4-2.56-2.52-4.16-3.34c-1.59-0.83-3.34-1.24-5.26-1.24c-2.87,0-5.43,0.94-7.69,2.82
			c-2.26,1.88-4,4.19-5.21,6.93v11.94c0.44,1.27,1.1,2.42,1.96,3.44c0.86,1.02,1.83,1.9,2.92,2.63c1.08,0.73,2.26,1.31,3.54,1.72
			C802.23,166.07,803.47,166.27,804.68,166.27z"/>
		<path class="st0" d="M853.99,177.17c-2.42,0-4.68-0.4-6.78-1.19s-3.92-1.91-5.45-3.34c-1.53-1.43-2.72-3.11-3.58-5.02
			c-0.86-1.91-1.29-4.01-1.29-6.31c0-2.36,0.53-4.54,1.58-6.55c1.05-2.01,2.52-3.71,4.4-5.11c1.88-1.4,4.12-2.5,6.74-3.3
			c2.61-0.8,5.48-1.19,8.6-1.19c2.23,0,4.41,0.19,6.54,0.57c2.13,0.38,4.03,0.92,5.69,1.62v-2.87c0-3.31-0.94-5.86-2.82-7.64
			c-1.88-1.78-4.67-2.68-8.36-2.68c-2.68,0-5.29,0.48-7.84,1.43c-2.55,0.96-5.16,2.36-7.83,4.2l-3.92-8.12
			c6.43-4.27,13.38-6.4,20.83-6.4c7.2,0,12.79,1.77,16.77,5.3c3.98,3.54,5.97,8.65,5.97,15.34v15.58c0,1.34,0.24,2.29,0.72,2.87
			c0.48,0.57,1.26,0.89,2.34,0.96v10.89c-2.17,0.44-4.05,0.67-5.64,0.67c-2.42,0-4.29-0.54-5.59-1.62c-1.31-1.08-2.12-2.52-2.44-4.3
			l-0.29-2.77c-2.23,2.93-4.94,5.16-8.12,6.69C861.02,176.4,857.62,177.17,853.99,177.17z M857.62,167.8c2.17,0,4.22-0.38,6.16-1.15
			c1.94-0.76,3.46-1.78,4.54-3.06c1.4-1.08,2.1-2.29,2.1-3.63v-5.73c-1.53-0.57-3.19-1.04-4.97-1.39c-1.78-0.35-3.5-0.53-5.16-0.53
			c-3.31,0-6.02,0.75-8.12,2.25c-2.1,1.5-3.15,3.39-3.15,5.69c0,2.17,0.83,3.97,2.48,5.4C853.16,167.09,855.2,167.8,857.62,167.8z"
			/>
		<path class="st0" d="M914.76,176.5c-3.38,0-6.44-0.67-9.17-2.01c-2.74-1.34-5.11-3.17-7.12-5.49c-2.01-2.32-3.55-5.02-4.63-8.07
			c-1.08-3.06-1.63-6.31-1.63-9.75c0-3.63,0.57-7.01,1.72-10.13c1.15-3.12,2.74-5.86,4.78-8.22c2.04-2.36,4.49-4.2,7.36-5.54
			c2.87-1.34,6.02-2.01,9.46-2.01c3.88,0,7.29,0.88,10.22,2.63c2.93,1.75,5.35,4.09,7.26,7.02v-8.79h11.18v47.68
			c0,3.69-0.7,7.01-2.1,9.94c-1.4,2.93-3.33,5.41-5.78,7.45c-2.45,2.04-5.38,3.6-8.79,4.68c-3.41,1.08-7.12,1.62-11.13,1.62
			c-5.48,0-10.08-0.91-13.81-2.72s-6.93-4.38-9.6-7.69l6.98-6.78c1.91,2.36,4.32,4.2,7.21,5.54c2.9,1.34,5.97,2.01,9.22,2.01
			c1.97,0,3.87-0.27,5.69-0.81c1.82-0.54,3.42-1.39,4.83-2.53c1.4-1.15,2.5-2.61,3.3-4.4c0.8-1.78,1.2-3.89,1.2-6.31v-6.31
			c-1.66,2.87-3.98,5.08-6.98,6.64C921.41,175.72,918.2,176.5,914.76,176.5z M919.06,166.27c1.4,0,2.74-0.22,4.01-0.67
			c1.27-0.45,2.45-1.05,3.54-1.82c1.08-0.76,2.04-1.66,2.87-2.68c0.83-1.02,1.46-2.1,1.91-3.25v-11.94
			c-1.15-2.93-2.95-5.29-5.4-7.07c-2.45-1.78-5.02-2.68-7.69-2.68c-1.98,0-3.76,0.43-5.35,1.29c-1.59,0.86-2.96,2.01-4.11,3.44
			c-1.15,1.43-2.02,3.07-2.63,4.92c-0.61,1.85-0.91,3.76-0.91,5.73c0,2.04,0.35,3.95,1.05,5.73c0.7,1.78,1.67,3.34,2.91,4.68
			c1.24,1.34,2.69,2.39,4.35,3.15C915.27,165.89,917.08,166.27,919.06,166.27z"/>
		<path class="st0" d="M969.41,177.17c-2.42,0-4.68-0.4-6.78-1.19s-3.92-1.91-5.45-3.34c-1.53-1.43-2.72-3.11-3.58-5.02
			c-0.86-1.91-1.29-4.01-1.29-6.31c0-2.36,0.53-4.54,1.58-6.55c1.05-2.01,2.52-3.71,4.4-5.11c1.88-1.4,4.12-2.5,6.74-3.3
			c2.61-0.8,5.48-1.19,8.6-1.19c2.23,0,4.41,0.19,6.54,0.57c2.13,0.38,4.03,0.92,5.69,1.62v-2.87c0-3.31-0.94-5.86-2.82-7.64
			c-1.88-1.78-4.67-2.68-8.36-2.68c-2.68,0-5.29,0.48-7.84,1.43c-2.55,0.96-5.16,2.36-7.83,4.2l-3.92-8.12
			c6.43-4.27,13.38-6.4,20.83-6.4c7.2,0,12.79,1.77,16.77,5.3c3.98,3.54,5.97,8.65,5.97,15.34v15.58c0,1.34,0.24,2.29,0.72,2.87
			c0.48,0.57,1.26,0.89,2.34,0.96v10.89c-2.17,0.44-4.05,0.67-5.64,0.67c-2.42,0-4.29-0.54-5.59-1.62c-1.31-1.08-2.12-2.52-2.44-4.3
			l-0.29-2.77c-2.23,2.93-4.94,5.16-8.12,6.69C976.45,176.4,973.04,177.17,969.41,177.17z M973.04,167.8c2.17,0,4.22-0.38,6.16-1.15
			c1.94-0.76,3.46-1.78,4.54-3.06c1.4-1.08,2.1-2.29,2.1-3.63v-5.73c-1.53-0.57-3.19-1.04-4.97-1.39c-1.78-0.35-3.5-0.53-5.16-0.53
			c-3.31,0-6.02,0.75-8.12,2.25c-2.1,1.5-3.15,3.39-3.15,5.69c0,2.17,0.83,3.97,2.48,5.4C968.59,167.09,970.62,167.8,973.04,167.8z"
			/>
		<path class="st0" d="M1075.19,126.14c-0.45-0.44-1.26-1.05-2.44-1.82c-1.18-0.76-2.61-1.51-4.3-2.25
			c-1.69-0.73-3.52-1.35-5.5-1.86c-1.97-0.51-3.98-0.76-6.02-0.76c-3.63,0-6.34,0.67-8.12,2.01c-1.78,1.34-2.68,3.22-2.68,5.64
			c0,1.4,0.33,2.57,1,3.49c0.67,0.92,1.64,1.74,2.92,2.44c1.27,0.7,2.88,1.34,4.83,1.91c1.94,0.57,4.19,1.18,6.74,1.82
			c3.31,0.89,6.32,1.85,9.03,2.87c2.71,1.02,5,2.29,6.88,3.82c1.88,1.53,3.33,3.36,4.35,5.49c1.02,2.14,1.53,4.76,1.53,7.88
			c0,3.63-0.69,6.74-2.05,9.32c-1.37,2.58-3.22,4.67-5.54,6.26c-2.33,1.59-5,2.76-8.03,3.49c-3.03,0.73-6.2,1.1-9.51,1.1
			c-5.1,0-10.13-0.76-15.1-2.29c-4.97-1.53-9.43-3.69-13.38-6.5l5.83-11.37c0.57,0.57,1.61,1.32,3.11,2.25
			c1.5,0.92,3.26,1.85,5.3,2.77c2.04,0.92,4.3,1.71,6.78,2.34c2.49,0.64,5.03,0.96,7.64,0.96c7.26,0,10.89-2.32,10.89-6.98
			c0-1.46-0.42-2.71-1.24-3.73c-0.83-1.02-2.01-1.91-3.54-2.68c-1.53-0.76-3.38-1.46-5.54-2.1c-2.17-0.64-4.59-1.34-7.26-2.1
			c-3.25-0.89-6.07-1.86-8.46-2.91c-2.39-1.05-4.38-2.29-5.97-3.73c-1.59-1.43-2.79-3.09-3.58-4.97c-0.8-1.88-1.19-4.12-1.19-6.74
			c0-3.44,0.64-6.5,1.91-9.17c1.27-2.68,3.04-4.9,5.3-6.69c2.26-1.78,4.89-3.14,7.88-4.06c2.99-0.92,6.21-1.39,9.65-1.39
			c4.78,0,9.17,0.75,13.19,2.25c4.01,1.5,7.52,3.27,10.51,5.3L1075.19,126.14z"/>
		<path class="st0" d="M1115.33,177.17c-4.01,0-7.64-0.69-10.89-2.05s-6.02-3.23-8.31-5.59c-2.29-2.36-4.06-5.1-5.3-8.22
			c-1.24-3.12-1.86-6.4-1.86-9.84c0-3.57,0.6-6.93,1.82-10.08c1.21-3.15,2.96-5.92,5.26-8.31c2.29-2.39,5.08-4.28,8.36-5.69
			c3.28-1.4,6.96-2.1,11.04-2.1c4.08,0,7.72,0.7,10.94,2.1c3.22,1.4,5.96,3.28,8.22,5.64c2.26,2.36,3.98,5.1,5.16,8.22
			c1.18,3.12,1.77,6.37,1.77,9.75c0,0.83-0.02,1.62-0.05,2.39c-0.03,0.76-0.11,1.4-0.24,1.91h-38.7c0.19,1.98,0.67,3.73,1.43,5.26
			c0.76,1.53,1.75,2.83,2.96,3.92c1.21,1.08,2.58,1.91,4.11,2.48c1.53,0.57,3.12,0.86,4.78,0.86c2.55,0,4.95-0.62,7.21-1.86
			c2.26-1.24,3.81-2.88,4.63-4.92l10.99,3.06c-1.85,3.82-4.79,6.96-8.84,9.41C1125.76,175.94,1120.93,177.17,1115.33,177.17z
			 M1128.32,146.97c-0.32-3.76-1.71-6.77-4.16-9.03c-2.45-2.26-5.43-3.39-8.93-3.39c-1.72,0-3.33,0.3-4.83,0.91
			c-1.5,0.61-2.82,1.45-3.97,2.53c-1.15,1.08-2.09,2.39-2.82,3.92c-0.73,1.53-1.16,3.22-1.29,5.06H1128.32z"/>
		<path class="st0" d="M1179.16,137.22c-3.89,0.06-7.36,0.81-10.42,2.25c-3.06,1.43-5.26,3.58-6.59,6.45v30.29h-12.8v-50.07h11.75
			v10.7c0.89-1.72,1.94-3.26,3.15-4.63c1.21-1.37,2.52-2.56,3.92-3.58c1.4-1.02,2.82-1.8,4.25-2.34c1.43-0.54,2.82-0.81,4.16-0.81
			c0.7,0,1.23,0,1.58,0c0.35,0,0.68,0.03,1,0.1V137.22z"/>
		<path class="st0" d="M1216.33,173.63c-1.72,0.76-3.82,1.53-6.31,2.29c-2.48,0.76-5.1,1.15-7.83,1.15c-1.78,0-3.46-0.22-5.02-0.67
			c-1.56-0.44-2.93-1.16-4.11-2.15c-1.18-0.99-2.12-2.26-2.82-3.82c-0.7-1.56-1.05-3.45-1.05-5.69v-28.76h-6.59v-9.84h6.59V109.9
			h12.8v16.24h10.51v9.84h-10.51v24.46c0,1.78,0.46,3.04,1.39,3.77c0.92,0.73,2.05,1.1,3.39,1.1c1.34,0,2.64-0.22,3.92-0.67
			c1.27-0.45,2.29-0.83,3.06-1.15L1216.33,173.63z"/>
		<path class="st0" d="M1223.01,119.16v-12.71h12.8v12.71H1223.01z M1223.01,176.21v-50.07h12.8v50.07H1223.01z"/>
		<path class="st0" d="M1250.44,138.56h-6.59v-9.75h6.59v-3.06c0-2.74,0.46-5.35,1.39-7.84c0.92-2.48,2.26-4.63,4.01-6.45
			c1.75-1.82,3.89-3.26,6.4-4.35c2.52-1.08,5.37-1.62,8.55-1.62c3.63,0,6.96,0.59,9.99,1.77c3.02,1.18,5.88,2.66,8.55,4.44
			l-5.06,9.56c-1.66-1.46-3.6-2.64-5.83-3.54c-2.23-0.89-4.49-1.34-6.79-1.34c-2.87,0-4.99,0.89-6.35,2.68
			c-1.37,1.78-2.05,3.85-2.05,6.21v3.54h26.85v47.4h-12.8v-37.65h-14.05v37.65h-12.8V138.56z"/>
		<path class="st0" d="M1335.86,176.21l-14.52-21.69l-6.88,6.78v14.91h-12.8v-69.76h12.8v42.33l20.07-22.55h13.66l-18.63,21.21
			l19.97,28.76H1335.86z"/>
		<path class="st0" d="M1367.97,177.17c-2.42,0-4.68-0.4-6.78-1.19s-3.92-1.91-5.45-3.34c-1.53-1.43-2.72-3.11-3.58-5.02
			c-0.86-1.91-1.29-4.01-1.29-6.31c0-2.36,0.53-4.54,1.58-6.55c1.05-2.01,2.52-3.71,4.4-5.11c1.88-1.4,4.12-2.5,6.74-3.3
			c2.61-0.8,5.48-1.19,8.6-1.19c2.23,0,4.41,0.19,6.54,0.57c2.13,0.38,4.03,0.92,5.69,1.62v-2.87c0-3.31-0.94-5.86-2.82-7.64
			c-1.88-1.78-4.67-2.68-8.36-2.68c-2.68,0-5.29,0.48-7.84,1.43c-2.55,0.96-5.16,2.36-7.83,4.2l-3.92-8.12
			c6.43-4.27,13.38-6.4,20.83-6.4c7.2,0,12.79,1.77,16.77,5.3c3.98,3.54,5.97,8.65,5.97,15.34v15.58c0,1.34,0.24,2.29,0.72,2.87
			c0.48,0.57,1.26,0.89,2.34,0.96v10.89c-2.17,0.44-4.05,0.67-5.64,0.67c-2.42,0-4.29-0.54-5.59-1.62c-1.31-1.08-2.12-2.52-2.44-4.3
			l-0.29-2.77c-2.23,2.93-4.94,5.16-8.12,6.69C1375.01,176.4,1371.6,177.17,1367.97,177.17z M1371.6,167.8
			c2.17,0,4.22-0.38,6.16-1.15c1.94-0.76,3.46-1.78,4.54-3.06c1.4-1.08,2.1-2.29,2.1-3.63v-5.73c-1.53-0.57-3.19-1.04-4.97-1.39
			c-1.78-0.35-3.5-0.53-5.16-0.53c-3.31,0-6.02,0.75-8.12,2.25c-2.1,1.5-3.15,3.39-3.15,5.69c0,2.17,0.83,3.97,2.48,5.4
			C1367.14,167.09,1369.18,167.8,1371.6,167.8z"/>
		<path class="st0" d="M1428.08,177.17c-4.2,0-8.31-0.67-12.33-2.01c-4.01-1.34-7.45-3.25-10.32-5.73l4.78-8.03
			c3.06,2.17,6.04,3.81,8.93,4.92c2.9,1.12,5.78,1.67,8.65,1.67c2.55,0,4.55-0.48,6.02-1.43c1.46-0.96,2.2-2.32,2.2-4.11
			c0-1.78-0.86-3.09-2.58-3.92c-1.72-0.83-4.52-1.78-8.41-2.87c-3.25-0.89-6.02-1.75-8.31-2.58c-2.29-0.83-4.14-1.77-5.54-2.82
			c-1.4-1.05-2.42-2.26-3.06-3.63c-0.64-1.37-0.96-3.01-0.96-4.92c0-2.55,0.49-4.84,1.48-6.88c0.99-2.04,2.37-3.77,4.16-5.21
			c1.78-1.43,3.87-2.53,6.26-3.3c2.39-0.76,4.98-1.15,7.79-1.15c3.76,0,7.28,0.54,10.56,1.62c3.28,1.08,6.29,2.84,9.03,5.26
			l-5.16,7.74c-2.55-1.91-5.02-3.31-7.41-4.2c-2.39-0.89-4.76-1.34-7.12-1.34c-2.17,0-3.98,0.45-5.45,1.34
			c-1.47,0.89-2.2,2.33-2.2,4.3c0,0.89,0.17,1.62,0.53,2.2c0.35,0.57,0.91,1.08,1.67,1.53c0.76,0.45,1.77,0.88,3.01,1.29
			c1.24,0.42,2.79,0.85,4.63,1.29c3.44,0.89,6.39,1.78,8.84,2.68c2.45,0.89,4.46,1.91,6.02,3.06c1.56,1.15,2.71,2.47,3.44,3.97
			c0.73,1.5,1.1,3.3,1.1,5.4c0,4.91-1.82,8.78-5.45,11.61C1439.25,175.75,1434.32,177.17,1428.08,177.17z"/>
		<path class="st0" d="M1456.65,119.16v-12.71h12.8v12.71H1456.65z M1456.65,176.21v-50.07h12.8v50.07H1456.65z"/>
		<path class="st0" d="M1505.19,176.21v-67.84h28.76c3.12,0,6,0.65,8.65,1.96c2.64,1.31,4.92,3.03,6.83,5.16
			c1.91,2.14,3.41,4.56,4.49,7.26c1.08,2.71,1.62,5.43,1.62,8.17c0,2.87-0.51,5.65-1.53,8.36c-1.02,2.71-2.45,5.11-4.3,7.21
			s-4.08,3.79-6.69,5.06c-2.61,1.27-5.48,1.91-8.6,1.91h-16.05v22.74H1505.19z M1518.37,141.91h15.29c2.42,0,4.44-0.99,6.07-2.96
			c1.63-1.97,2.44-4.65,2.44-8.03c0-1.72-0.25-3.26-0.76-4.63c-0.51-1.37-1.18-2.53-2.01-3.49c-0.83-0.96-1.8-1.67-2.92-2.15
			c-1.12-0.48-2.25-0.72-3.39-0.72h-14.72V141.91z"/>
		<path class="st0" d="M1593.29,137.22c-3.89,0.06-7.36,0.81-10.42,2.25c-3.06,1.43-5.26,3.58-6.59,6.45v30.29h-12.8v-50.07h11.75
			v10.7c0.89-1.72,1.94-3.26,3.15-4.63c1.21-1.37,2.52-2.56,3.92-3.58c1.4-1.02,2.82-1.8,4.25-2.34c1.43-0.54,2.82-0.81,4.16-0.81
			c0.7,0,1.23,0,1.58,0c0.35,0,0.68,0.03,1,0.1V137.22z"/>
		<path class="st0" d="M1621.09,177.17c-4.08,0-7.74-0.7-10.99-2.1c-3.25-1.4-6.01-3.3-8.27-5.69c-2.26-2.39-4-5.14-5.21-8.27
			c-1.21-3.12-1.82-6.4-1.82-9.84c0-3.5,0.6-6.82,1.82-9.94c1.21-3.12,2.95-5.88,5.21-8.27c2.26-2.39,5.02-4.28,8.27-5.69
			c3.25-1.4,6.91-2.1,10.99-2.1c4.08,0,7.72,0.7,10.94,2.1c3.22,1.4,5.96,3.3,8.22,5.69c2.26,2.39,4,5.15,5.21,8.27
			c1.21,3.12,1.82,6.44,1.82,9.94c0,3.44-0.61,6.72-1.82,9.84c-1.21,3.12-2.93,5.88-5.16,8.27c-2.23,2.39-4.97,4.28-8.22,5.69
			C1628.83,176.47,1625.17,177.17,1621.09,177.17z M1608,151.27c0,2.23,0.33,4.25,1,6.07c0.67,1.82,1.59,3.39,2.77,4.73
			c1.18,1.34,2.56,2.37,4.16,3.11c1.59,0.73,3.31,1.1,5.16,1.1c1.85,0,3.57-0.37,5.16-1.1c1.59-0.73,2.98-1.77,4.16-3.11
			c1.18-1.34,2.1-2.93,2.77-4.78c0.67-1.85,1-3.88,1-6.12c0-2.17-0.33-4.17-1-6.02c-0.67-1.85-1.59-3.44-2.77-4.78
			c-1.18-1.34-2.56-2.37-4.16-3.11c-1.59-0.73-3.31-1.1-5.16-1.1c-1.85,0-3.57,0.38-5.16,1.15c-1.59,0.76-2.98,1.82-4.16,3.15
			c-1.18,1.34-2.1,2.93-2.77,4.78C1608.34,147.1,1608,149.11,1608,151.27z"/>
		<path class="st0" d="M1658.17,176.21v-37.65h-6.59v-9.75h6.59v-3.06c0-6.24,1.5-11.18,4.49-14.81c2.99-3.63,7.07-5.45,12.23-5.45
			c4.08,0,8.18,0.99,12.33,2.96l-2.58,9.65c-0.96-0.51-2.09-0.94-3.39-1.29c-1.31-0.35-2.5-0.53-3.58-0.53c-4.46,0-6.69,3-6.69,8.98
			v3.54h12.23v9.75h-12.23v37.65H1658.17z"/>
		<path class="st0" d="M1711.2,177.17c-4.01,0-7.64-0.69-10.89-2.05s-6.02-3.23-8.31-5.59c-2.29-2.36-4.06-5.1-5.3-8.22
			c-1.24-3.12-1.86-6.4-1.86-9.84c0-3.57,0.6-6.93,1.82-10.08c1.21-3.15,2.96-5.92,5.26-8.31c2.29-2.39,5.08-4.28,8.36-5.69
			c3.28-1.4,6.96-2.1,11.04-2.1c4.08,0,7.72,0.7,10.94,2.1c3.22,1.4,5.96,3.28,8.22,5.64c2.26,2.36,3.98,5.1,5.16,8.22
			c1.18,3.12,1.77,6.37,1.77,9.75c0,0.83-0.02,1.62-0.05,2.39c-0.03,0.76-0.11,1.4-0.24,1.91h-38.7c0.19,1.98,0.67,3.73,1.43,5.26
			c0.76,1.53,1.75,2.83,2.96,3.92c1.21,1.08,2.58,1.91,4.11,2.48c1.53,0.57,3.12,0.86,4.78,0.86c2.55,0,4.95-0.62,7.21-1.86
			c2.26-1.24,3.81-2.88,4.63-4.92l10.99,3.06c-1.85,3.82-4.79,6.96-8.84,9.41C1721.63,175.94,1716.81,177.17,1711.2,177.17z
			 M1724.2,146.97c-0.32-3.76-1.71-6.77-4.16-9.03c-2.45-2.26-5.43-3.39-8.93-3.39c-1.72,0-3.33,0.3-4.83,0.91
			c-1.5,0.61-2.82,1.45-3.97,2.53c-1.15,1.08-2.09,2.39-2.82,3.92c-0.73,1.53-1.16,3.22-1.29,5.06H1724.2z"/>
		<path class="st0" d="M1764.14,177.17c-4.2,0-8.31-0.67-12.33-2.01c-4.01-1.34-7.45-3.25-10.32-5.73l4.78-8.03
			c3.06,2.17,6.04,3.81,8.93,4.92c2.9,1.12,5.78,1.67,8.65,1.67c2.55,0,4.55-0.48,6.02-1.43c1.46-0.96,2.2-2.32,2.2-4.11
			c0-1.78-0.86-3.09-2.58-3.92c-1.72-0.83-4.52-1.78-8.41-2.87c-3.25-0.89-6.02-1.75-8.31-2.58c-2.29-0.83-4.14-1.77-5.54-2.82
			c-1.4-1.05-2.42-2.26-3.06-3.63c-0.64-1.37-0.96-3.01-0.96-4.92c0-2.55,0.49-4.84,1.48-6.88c0.99-2.04,2.37-3.77,4.16-5.21
			c1.78-1.43,3.87-2.53,6.26-3.3c2.39-0.76,4.98-1.15,7.79-1.15c3.76,0,7.28,0.54,10.56,1.62c3.28,1.08,6.29,2.84,9.03,5.26
			l-5.16,7.74c-2.55-1.91-5.02-3.31-7.41-4.2c-2.39-0.89-4.76-1.34-7.12-1.34c-2.17,0-3.98,0.45-5.45,1.34
			c-1.47,0.89-2.2,2.33-2.2,4.3c0,0.89,0.17,1.62,0.53,2.2c0.35,0.57,0.91,1.08,1.67,1.53c0.76,0.45,1.77,0.88,3.01,1.29
			c1.24,0.42,2.79,0.85,4.63,1.29c3.44,0.89,6.39,1.78,8.84,2.68c2.45,0.89,4.46,1.91,6.02,3.06c1.56,1.15,2.71,2.47,3.44,3.97
			c0.73,1.5,1.1,3.3,1.1,5.4c0,4.91-1.82,8.78-5.45,11.61C1775.32,175.75,1770.38,177.17,1764.14,177.17z"/>
		<path class="st0" d="M1792.71,119.16v-12.71h12.8v12.71H1792.71z M1792.71,176.21v-50.07h12.8v50.07H1792.71z"/>
		<path class="st0" d="M631.72,234.6h-21.69v56.28h-13.09V234.6h-21.69v-11.56h56.47V234.6z"/>
		<path class="st0" d="M651.22,291.83c-4.01,0-7.64-0.68-10.89-2.05s-6.02-3.23-8.31-5.59c-2.29-2.36-4.06-5.1-5.3-8.22
			s-1.86-6.4-1.86-9.84c0-3.57,0.6-6.93,1.82-10.08c1.21-3.15,2.96-5.92,5.26-8.31c2.29-2.39,5.08-4.28,8.36-5.69
			c3.28-1.4,6.96-2.1,11.04-2.1c4.08,0,7.72,0.7,10.94,2.1c3.22,1.4,5.96,3.28,8.22,5.64c2.26,2.36,3.98,5.1,5.16,8.22
			c1.18,3.12,1.77,6.37,1.77,9.75c0,0.83-0.02,1.62-0.05,2.39c-0.03,0.76-0.11,1.4-0.24,1.91h-38.7c0.19,1.98,0.67,3.73,1.43,5.26
			c0.76,1.53,1.75,2.83,2.96,3.92c1.21,1.08,2.58,1.91,4.11,2.48c1.53,0.57,3.12,0.86,4.78,0.86c2.55,0,4.95-0.62,7.21-1.86
			c2.26-1.24,3.81-2.88,4.63-4.92l10.99,3.06c-1.85,3.82-4.79,6.96-8.84,9.41C661.65,290.61,656.82,291.83,651.22,291.83z
			 M664.21,261.64c-0.32-3.76-1.71-6.77-4.16-9.03c-2.45-2.26-5.43-3.39-8.93-3.39c-1.72,0-3.33,0.3-4.83,0.91
			c-1.5,0.61-2.82,1.45-3.97,2.53c-1.15,1.08-2.09,2.39-2.82,3.92c-0.73,1.53-1.16,3.22-1.29,5.06H664.21z"/>
		<path class="st0" d="M719.44,290.88l-14.52-21.69l-6.88,6.79v14.91h-12.8v-69.76h12.8v42.33l20.07-22.55h13.66l-18.63,21.21
			l19.97,28.76H719.44z"/>
		<path class="st0" d="M785.09,290.88h-12.8v-28.09c0-4.01-0.7-6.94-2.1-8.79c-1.4-1.85-3.34-2.77-5.83-2.77
			c-1.28,0-2.58,0.25-3.92,0.76s-2.6,1.23-3.77,2.15c-1.18,0.92-2.25,2.02-3.2,3.3c-0.96,1.28-1.66,2.68-2.1,4.2v29.24h-12.8v-50.07
			h11.56v9.27c1.85-3.19,4.52-5.67,8.03-7.45c3.5-1.78,7.45-2.68,11.85-2.68c3.12,0,5.67,0.57,7.64,1.72
			c1.97,1.15,3.5,2.64,4.59,4.49c1.08,1.85,1.83,3.95,2.25,6.31c0.41,2.36,0.62,4.75,0.62,7.17V290.88z"/>
		<path class="st0" d="M819.39,291.83c-4.08,0-7.74-0.7-10.99-2.1c-3.25-1.4-6.01-3.3-8.27-5.69c-2.26-2.39-4-5.14-5.21-8.27
			c-1.21-3.12-1.82-6.4-1.82-9.84c0-3.5,0.6-6.82,1.82-9.94c1.21-3.12,2.95-5.88,5.21-8.27c2.26-2.39,5.02-4.28,8.27-5.69
			c3.25-1.4,6.91-2.1,10.99-2.1c4.08,0,7.72,0.7,10.94,2.1c3.22,1.4,5.96,3.3,8.22,5.69c2.26,2.39,4,5.15,5.21,8.27
			c1.21,3.12,1.82,6.44,1.82,9.94c0,3.44-0.61,6.72-1.82,9.84c-1.21,3.12-2.93,5.88-5.16,8.27c-2.23,2.39-4.97,4.29-8.22,5.69
			S823.47,291.83,819.39,291.83z M806.3,265.94c0,2.23,0.33,4.25,1,6.07s1.59,3.39,2.77,4.73c1.18,1.34,2.56,2.37,4.16,3.11
			c1.59,0.73,3.31,1.1,5.16,1.1c1.85,0,3.57-0.37,5.16-1.1c1.59-0.73,2.98-1.77,4.16-3.11s2.1-2.93,2.77-4.78
			c0.67-1.85,1-3.88,1-6.12c0-2.17-0.33-4.17-1-6.02c-0.67-1.85-1.59-3.44-2.77-4.78s-2.56-2.37-4.16-3.11
			c-1.59-0.73-3.31-1.1-5.16-1.1c-1.85,0-3.57,0.38-5.16,1.15c-1.59,0.76-2.98,1.82-4.16,3.15c-1.18,1.34-2.1,2.93-2.77,4.78
			C806.64,261.77,806.3,263.77,806.3,265.94z"/>
		<path class="st0" d="M854.08,221.12h12.8v53.7c0,1.85,0.44,3.28,1.34,4.3c0.89,1.02,2.16,1.53,3.82,1.53
			c0.76,0,1.61-0.13,2.53-0.38c0.92-0.25,1.8-0.57,2.63-0.96l1.72,9.75c-1.72,0.83-3.73,1.47-6.02,1.91
			c-2.29,0.44-4.36,0.67-6.21,0.67c-4.01,0-7.12-1.07-9.32-3.2c-2.2-2.13-3.3-5.17-3.3-9.13V221.12z"/>
		<path class="st0" d="M907.59,291.83c-4.08,0-7.74-0.7-10.99-2.1c-3.25-1.4-6.01-3.3-8.27-5.69c-2.26-2.39-4-5.14-5.21-8.27
			c-1.21-3.12-1.82-6.4-1.82-9.84c0-3.5,0.6-6.82,1.82-9.94c1.21-3.12,2.95-5.88,5.21-8.27c2.26-2.39,5.02-4.28,8.27-5.69
			c3.25-1.4,6.91-2.1,10.99-2.1c4.08,0,7.72,0.7,10.94,2.1c3.22,1.4,5.96,3.3,8.22,5.69c2.26,2.39,4,5.15,5.21,8.27
			c1.21,3.12,1.82,6.44,1.82,9.94c0,3.44-0.61,6.72-1.82,9.84c-1.21,3.12-2.93,5.88-5.16,8.27c-2.23,2.39-4.97,4.29-8.22,5.69
			S911.66,291.83,907.59,291.83z M894.5,265.94c0,2.23,0.33,4.25,1,6.07s1.59,3.39,2.77,4.73c1.18,1.34,2.56,2.37,4.16,3.11
			c1.59,0.73,3.31,1.1,5.16,1.1c1.85,0,3.57-0.37,5.16-1.1c1.59-0.73,2.98-1.77,4.16-3.11s2.1-2.93,2.77-4.78
			c0.67-1.85,1-3.88,1-6.12c0-2.17-0.33-4.17-1-6.02c-0.67-1.85-1.59-3.44-2.77-4.78s-2.56-2.37-4.16-3.11
			c-1.59-0.73-3.31-1.1-5.16-1.1c-1.85,0-3.57,0.38-5.16,1.15c-1.59,0.76-2.98,1.82-4.16,3.15c-1.18,1.34-2.1,2.93-2.77,4.78
			C894.83,261.77,894.5,263.77,894.5,265.94z"/>
		<path class="st0" d="M961.96,291.16c-3.38,0-6.44-0.67-9.17-2.01c-2.74-1.34-5.11-3.17-7.12-5.5c-2.01-2.32-3.55-5.02-4.63-8.07
			c-1.08-3.06-1.63-6.31-1.63-9.75c0-3.63,0.57-7.01,1.72-10.13c1.15-3.12,2.74-5.86,4.78-8.22c2.04-2.36,4.49-4.21,7.36-5.54
			c2.87-1.34,6.02-2.01,9.46-2.01c3.88,0,7.29,0.88,10.22,2.63c2.93,1.75,5.35,4.09,7.26,7.02v-8.79h11.18v47.68
			c0,3.69-0.7,7.01-2.1,9.94c-1.4,2.93-3.33,5.41-5.78,7.45c-2.45,2.04-5.38,3.6-8.79,4.68c-3.41,1.08-7.12,1.62-11.13,1.62
			c-5.48,0-10.08-0.91-13.81-2.72c-3.73-1.82-6.93-4.38-9.6-7.69l6.98-6.78c1.91,2.36,4.32,4.2,7.21,5.54
			c2.9,1.34,5.97,2.01,9.22,2.01c1.97,0,3.87-0.27,5.69-0.81c1.82-0.54,3.42-1.39,4.83-2.53c1.4-1.15,2.5-2.61,3.3-4.4
			c0.8-1.78,1.2-3.89,1.2-6.31v-6.31c-1.66,2.87-3.98,5.08-6.98,6.64C968.61,290.38,965.4,291.16,961.96,291.16z M966.26,280.94
			c1.4,0,2.74-0.22,4.01-0.67c1.27-0.45,2.45-1.05,3.54-1.82c1.08-0.76,2.04-1.66,2.87-2.68c0.83-1.02,1.46-2.1,1.91-3.25v-11.94
			c-1.15-2.93-2.95-5.29-5.4-7.07c-2.45-1.78-5.02-2.68-7.69-2.68c-1.98,0-3.76,0.43-5.35,1.29c-1.59,0.86-2.96,2.01-4.11,3.44
			s-2.02,3.07-2.63,4.92c-0.61,1.85-0.91,3.76-0.91,5.73c0,2.04,0.35,3.95,1.05,5.73c0.7,1.78,1.67,3.34,2.91,4.68
			c1.24,1.34,2.69,2.39,4.35,3.15C962.47,280.56,964.28,280.94,966.26,280.94z"/>
		<path class="st0" d="M1002.95,233.83v-12.71h12.8v12.71H1002.95z M1002.95,290.88v-50.07h12.8v50.07H1002.95z"/>
		<path class="st0" d="M1051.49,290.88v-67.84h24.65c5.54,0,10.4,0.89,14.57,2.68c4.17,1.78,7.66,4.2,10.46,7.26
			c2.8,3.06,4.91,6.64,6.31,10.75c1.4,4.11,2.1,8.49,2.1,13.14c0,5.16-0.78,9.83-2.34,14c-1.56,4.17-3.81,7.74-6.74,10.7
			c-2.93,2.96-6.45,5.25-10.56,6.88c-4.11,1.62-8.71,2.44-13.81,2.44H1051.49z M1096.31,256.86c0-3.25-0.45-6.24-1.34-8.98
			c-0.89-2.74-2.2-5.1-3.92-7.07c-1.72-1.97-3.84-3.5-6.35-4.59c-2.52-1.08-5.37-1.62-8.55-1.62h-11.47v44.72h11.47
			c3.25,0,6.13-0.57,8.65-1.72c2.52-1.15,4.62-2.72,6.31-4.73c1.69-2.01,2.98-4.38,3.87-7.12
			C1095.86,263.01,1096.31,260.05,1096.31,256.86z"/>
		<path class="st0" d="M1118.66,233.83v-12.71h12.8v12.71H1118.66z M1118.66,290.88v-50.07h12.8v50.07H1118.66z"/>
		<path class="st0" d="M1162.62,291.16c-3.38,0-6.44-0.67-9.17-2.01c-2.74-1.34-5.11-3.17-7.12-5.5c-2.01-2.32-3.55-5.02-4.63-8.07
			c-1.08-3.06-1.63-6.31-1.63-9.75c0-3.63,0.57-7.01,1.72-10.13c1.15-3.12,2.74-5.86,4.78-8.22c2.04-2.36,4.49-4.21,7.36-5.54
			c2.87-1.34,6.02-2.01,9.46-2.01c3.88,0,7.29,0.88,10.22,2.63c2.93,1.75,5.35,4.09,7.26,7.02v-8.79h11.18v47.68
			c0,3.69-0.7,7.01-2.1,9.94c-1.4,2.93-3.33,5.41-5.78,7.45c-2.45,2.04-5.38,3.6-8.79,4.68c-3.41,1.08-7.12,1.62-11.13,1.62
			c-5.48,0-10.08-0.91-13.81-2.72c-3.73-1.82-6.93-4.38-9.6-7.69l6.98-6.78c1.91,2.36,4.32,4.2,7.21,5.54
			c2.9,1.34,5.97,2.01,9.22,2.01c1.97,0,3.87-0.27,5.69-0.81c1.82-0.54,3.42-1.39,4.83-2.53c1.4-1.15,2.5-2.61,3.3-4.4
			c0.8-1.78,1.2-3.89,1.2-6.31v-6.31c-1.66,2.87-3.98,5.08-6.98,6.64C1169.28,290.38,1166.06,291.16,1162.62,291.16z
			 M1166.92,280.94c1.4,0,2.74-0.22,4.01-0.67c1.27-0.45,2.45-1.05,3.54-1.82c1.08-0.76,2.04-1.66,2.87-2.68
			c0.83-1.02,1.46-2.1,1.91-3.25v-11.94c-1.15-2.93-2.95-5.29-5.4-7.07c-2.45-1.78-5.02-2.68-7.69-2.68c-1.98,0-3.76,0.43-5.35,1.29
			c-1.59,0.86-2.96,2.01-4.11,3.44s-2.02,3.07-2.63,4.92c-0.61,1.85-0.91,3.76-0.91,5.73c0,2.04,0.35,3.95,1.05,5.73
			c0.7,1.78,1.67,3.34,2.91,4.68c1.24,1.34,2.69,2.39,4.35,3.15C1163.13,280.56,1164.94,280.94,1166.92,280.94z"/>
		<path class="st0" d="M1203.61,233.83v-12.71h12.8v12.71H1203.61z M1203.61,290.88v-50.07h12.8v50.07H1203.61z"/>
		<path class="st0" d="M1257.98,288.3c-1.72,0.76-3.82,1.53-6.31,2.29c-2.48,0.76-5.1,1.15-7.83,1.15c-1.78,0-3.46-0.22-5.02-0.67
			c-1.56-0.45-2.93-1.16-4.11-2.15c-1.18-0.99-2.12-2.26-2.82-3.82c-0.7-1.56-1.05-3.46-1.05-5.69v-28.76h-6.59v-9.84h6.59v-16.24
			h12.8v16.24h10.51v9.84h-10.51v24.46c0,1.78,0.46,3.04,1.39,3.77c0.92,0.73,2.05,1.1,3.39,1.1c1.34,0,2.64-0.22,3.92-0.67
			c1.27-0.44,2.29-0.83,3.06-1.15L1257.98,288.3z"/>
		<path class="st0" d="M1278.33,291.83c-2.42,0-4.68-0.4-6.78-1.19s-3.92-1.91-5.45-3.34c-1.53-1.43-2.72-3.11-3.58-5.02
			c-0.86-1.91-1.29-4.01-1.29-6.31c0-2.36,0.53-4.54,1.58-6.55c1.05-2.01,2.52-3.71,4.4-5.11c1.88-1.4,4.12-2.5,6.74-3.3
			c2.61-0.8,5.48-1.19,8.6-1.19c2.23,0,4.41,0.19,6.54,0.57c2.13,0.38,4.03,0.92,5.69,1.63v-2.87c0-3.31-0.94-5.86-2.82-7.64
			c-1.88-1.78-4.67-2.68-8.36-2.68c-2.68,0-5.29,0.48-7.84,1.43c-2.55,0.96-5.16,2.36-7.83,4.21l-3.92-8.12
			c6.43-4.27,13.38-6.4,20.83-6.4c7.2,0,12.79,1.77,16.77,5.3c3.98,3.54,5.97,8.65,5.97,15.34v15.58c0,1.34,0.24,2.29,0.72,2.87
			s1.26,0.89,2.34,0.96v10.89c-2.17,0.45-4.05,0.67-5.64,0.67c-2.42,0-4.29-0.54-5.59-1.62c-1.31-1.08-2.12-2.52-2.44-4.3
			l-0.29-2.77c-2.23,2.93-4.94,5.16-8.12,6.69C1285.37,291.07,1281.96,291.83,1278.33,291.83z M1281.96,282.47
			c2.17,0,4.22-0.38,6.16-1.15c1.94-0.76,3.46-1.78,4.54-3.06c1.4-1.08,2.1-2.29,2.1-3.63v-5.73c-1.53-0.57-3.19-1.04-4.97-1.39
			c-1.78-0.35-3.5-0.53-5.16-0.53c-3.31,0-6.02,0.75-8.12,2.25c-2.1,1.5-3.15,3.39-3.15,5.69c0,2.17,0.83,3.97,2.48,5.4
			C1277.51,281.75,1279.54,282.47,1281.96,282.47z"/>
		<path class="st0" d="M1319.42,221.12h12.8v53.7c0,1.85,0.44,3.28,1.34,4.3c0.89,1.02,2.16,1.53,3.82,1.53
			c0.76,0,1.61-0.13,2.53-0.38c0.92-0.25,1.8-0.57,2.63-0.96l1.72,9.75c-1.72,0.83-3.73,1.47-6.02,1.91
			c-2.29,0.44-4.36,0.67-6.21,0.67c-4.01,0-7.12-1.07-9.32-3.2c-2.2-2.13-3.3-5.17-3.3-9.13V221.12z"/>
		<path class="st0" d="M580.98,405.54V337.7h13.19v67.84H580.98z"/>
		<path class="st0" d="M653.61,405.54h-12.8v-28.09c0-4.01-0.7-6.94-2.1-8.79c-1.4-1.85-3.34-2.77-5.83-2.77
			c-1.28,0-2.58,0.25-3.92,0.76s-2.6,1.23-3.77,2.15c-1.18,0.92-2.25,2.02-3.2,3.3c-0.96,1.28-1.66,2.68-2.1,4.2v29.24h-12.8v-50.07
			h11.56v9.27c1.85-3.19,4.52-5.67,8.03-7.45c3.5-1.78,7.45-2.67,11.85-2.67c3.12,0,5.67,0.57,7.64,1.72
			c1.97,1.15,3.5,2.64,4.59,4.49c1.08,1.85,1.83,3.95,2.25,6.31c0.41,2.36,0.62,4.75,0.62,7.17V405.54z"/>
		<path class="st0" d="M685.52,406.5c-3.44,0-6.63-0.67-9.56-2.01c-2.93-1.34-5.45-3.18-7.55-5.54c-2.1-2.36-3.74-5.11-4.92-8.27
			c-1.18-3.15-1.77-6.54-1.77-10.18c0-3.63,0.56-7.01,1.67-10.13c1.11-3.12,2.66-5.86,4.63-8.22c1.97-2.36,4.33-4.21,7.07-5.54
			c2.74-1.34,5.73-2.01,8.98-2.01c3.69,0,7.02,0.89,9.99,2.67c2.96,1.78,5.27,4.11,6.93,6.98v-28.48h12.8v55.04
			c0,1.34,0.22,2.29,0.67,2.87c0.45,0.57,1.21,0.89,2.29,0.96v10.89c-2.23,0.45-4.05,0.67-5.45,0.67c-2.29,0-4.17-0.57-5.64-1.72
			c-1.47-1.15-2.29-2.64-2.48-4.49l-0.29-3.15c-1.85,3.19-4.35,5.59-7.5,7.21C692.26,405.69,688.96,406.5,685.52,406.5z
			 M688.87,395.61c1.21,0,2.45-0.21,3.73-0.62c1.27-0.41,2.45-1,3.54-1.77c1.08-0.76,2.05-1.66,2.92-2.67
			c0.86-1.02,1.51-2.13,1.96-3.34v-11.94c-0.51-1.4-1.23-2.69-2.15-3.87c-0.92-1.18-1.98-2.2-3.15-3.06
			c-1.18-0.86-2.42-1.54-3.73-2.05c-1.31-0.51-2.6-0.76-3.87-0.76c-1.91,0-3.68,0.42-5.3,1.24c-1.62,0.83-3.01,1.96-4.16,3.39
			s-2.04,3.07-2.68,4.92c-0.64,1.85-0.96,3.76-0.96,5.73c0,2.1,0.35,4.05,1.05,5.83c0.7,1.78,1.66,3.34,2.87,4.68
			c1.21,1.34,2.66,2.39,4.35,3.15C684.96,395.22,686.83,395.61,688.87,395.61z"/>
		<path class="st0" d="M749.54,406.5c-4.08,0-7.74-0.7-10.99-2.1c-3.25-1.4-6.01-3.3-8.27-5.69c-2.26-2.39-4-5.14-5.21-8.27
			c-1.21-3.12-1.82-6.4-1.82-9.84c0-3.5,0.6-6.82,1.82-9.94c1.21-3.12,2.95-5.88,5.21-8.27c2.26-2.39,5.02-4.28,8.27-5.69
			c3.25-1.4,6.91-2.1,10.99-2.1c4.08,0,7.72,0.7,10.94,2.1c3.22,1.4,5.96,3.3,8.22,5.69c2.26,2.39,4,5.15,5.21,8.27
			c1.21,3.12,1.82,6.44,1.82,9.94c0,3.44-0.61,6.72-1.82,9.84c-1.21,3.12-2.93,5.88-5.16,8.27c-2.23,2.39-4.97,4.29-8.22,5.69
			S753.62,406.5,749.54,406.5z M736.45,380.6c0,2.23,0.33,4.25,1,6.07s1.59,3.39,2.77,4.73c1.18,1.34,2.56,2.37,4.16,3.11
			c1.59,0.73,3.31,1.1,5.16,1.1c1.85,0,3.57-0.37,5.16-1.1c1.59-0.73,2.98-1.77,4.16-3.11s2.1-2.93,2.77-4.78
			c0.67-1.85,1-3.88,1-6.12c0-2.17-0.33-4.17-1-6.02c-0.67-1.85-1.59-3.44-2.77-4.78s-2.56-2.37-4.16-3.11
			c-1.59-0.73-3.31-1.1-5.16-1.1c-1.85,0-3.57,0.38-5.16,1.15c-1.59,0.76-2.98,1.82-4.16,3.15c-1.18,1.34-2.1,2.93-2.77,4.78
			C736.78,376.43,736.45,378.44,736.45,380.6z"/>
		<path class="st0" d="M830.86,405.54h-12.8v-28.09c0-4.01-0.7-6.94-2.1-8.79c-1.4-1.85-3.34-2.77-5.83-2.77
			c-1.28,0-2.58,0.25-3.92,0.76s-2.6,1.23-3.77,2.15c-1.18,0.92-2.25,2.02-3.2,3.3c-0.96,1.28-1.66,2.68-2.1,4.2v29.24h-12.8v-50.07
			h11.56v9.27c1.85-3.19,4.52-5.67,8.03-7.45c3.5-1.78,7.45-2.67,11.85-2.67c3.12,0,5.67,0.57,7.64,1.72
			c1.97,1.15,3.5,2.64,4.59,4.49c1.08,1.85,1.83,3.95,2.25,6.31c0.41,2.36,0.62,4.75,0.62,7.17V405.54z"/>
		<path class="st0" d="M865.26,406.5c-4.01,0-7.64-0.68-10.89-2.05s-6.02-3.23-8.31-5.59c-2.29-2.36-4.06-5.1-5.3-8.22
			s-1.86-6.4-1.86-9.84c0-3.57,0.6-6.93,1.82-10.08c1.21-3.15,2.96-5.92,5.26-8.31c2.29-2.39,5.08-4.28,8.36-5.69
			c3.28-1.4,6.96-2.1,11.04-2.1c4.08,0,7.72,0.7,10.94,2.1c3.22,1.4,5.96,3.28,8.22,5.64c2.26,2.36,3.98,5.1,5.16,8.22
			c1.18,3.12,1.77,6.37,1.77,9.75c0,0.83-0.02,1.62-0.05,2.39c-0.03,0.76-0.11,1.4-0.24,1.91h-38.7c0.19,1.98,0.67,3.73,1.43,5.26
			c0.76,1.53,1.75,2.83,2.96,3.92c1.21,1.08,2.58,1.91,4.11,2.48c1.53,0.57,3.12,0.86,4.78,0.86c2.55,0,4.95-0.62,7.21-1.86
			c2.26-1.24,3.81-2.88,4.63-4.92l10.99,3.06c-1.85,3.82-4.79,6.96-8.84,9.41C875.69,405.27,870.86,406.5,865.26,406.5z
			 M878.25,376.3c-0.32-3.76-1.71-6.77-4.16-9.03c-2.45-2.26-5.43-3.39-8.93-3.39c-1.72,0-3.33,0.3-4.83,0.91
			c-1.5,0.61-2.82,1.45-3.97,2.53c-1.15,1.08-2.09,2.39-2.82,3.92c-0.73,1.53-1.16,3.22-1.29,5.06H878.25z"/>
		<path class="st0" d="M918.2,406.5c-4.2,0-8.31-0.67-12.33-2.01c-4.01-1.34-7.45-3.25-10.32-5.73l4.78-8.03
			c3.06,2.17,6.04,3.81,8.93,4.92c2.9,1.12,5.78,1.67,8.65,1.67c2.55,0,4.55-0.48,6.02-1.43c1.46-0.96,2.2-2.32,2.2-4.11
			c0-1.78-0.86-3.09-2.58-3.92c-1.72-0.83-4.52-1.78-8.41-2.87c-3.25-0.89-6.02-1.75-8.31-2.58c-2.29-0.83-4.14-1.77-5.54-2.82
			c-1.4-1.05-2.42-2.26-3.06-3.63c-0.64-1.37-0.96-3.01-0.96-4.92c0-2.55,0.49-4.84,1.48-6.88c0.99-2.04,2.37-3.77,4.16-5.21
			c1.78-1.43,3.87-2.53,6.26-3.3s4.98-1.15,7.79-1.15c3.76,0,7.28,0.54,10.56,1.62c3.28,1.08,6.29,2.83,9.03,5.26l-5.16,7.74
			c-2.55-1.91-5.02-3.31-7.41-4.21c-2.39-0.89-4.76-1.34-7.12-1.34c-2.17,0-3.98,0.45-5.45,1.34c-1.47,0.89-2.2,2.33-2.2,4.3
			c0,0.89,0.17,1.63,0.53,2.2c0.35,0.57,0.91,1.08,1.67,1.53c0.76,0.45,1.77,0.88,3.01,1.29c1.24,0.42,2.79,0.85,4.63,1.29
			c3.44,0.89,6.39,1.78,8.84,2.68c2.45,0.89,4.46,1.91,6.02,3.06c1.56,1.15,2.71,2.47,3.44,3.97c0.73,1.5,1.1,3.3,1.1,5.4
			c0,4.91-1.82,8.78-5.45,11.61C929.37,405.08,924.44,406.5,918.2,406.5z"/>
		<path class="st0" d="M946.77,348.5v-12.71h12.8v12.71H946.77z M946.77,405.54v-50.07h12.8v50.07H946.77z"/>
		<path class="st0" d="M984.79,406.5c-2.42,0-4.68-0.4-6.78-1.19s-3.92-1.91-5.45-3.34c-1.53-1.43-2.72-3.11-3.58-5.02
			c-0.86-1.91-1.29-4.01-1.29-6.31c0-2.36,0.53-4.54,1.58-6.55c1.05-2.01,2.52-3.71,4.4-5.11c1.88-1.4,4.12-2.5,6.74-3.3
			c2.61-0.8,5.48-1.19,8.6-1.19c2.23,0,4.41,0.19,6.54,0.57c2.13,0.38,4.03,0.92,5.69,1.63v-2.87c0-3.31-0.94-5.86-2.82-7.64
			c-1.88-1.78-4.67-2.68-8.36-2.68c-2.68,0-5.29,0.48-7.84,1.43c-2.55,0.96-5.16,2.36-7.83,4.21l-3.92-8.12
			c6.43-4.27,13.38-6.4,20.83-6.4c7.2,0,12.79,1.77,16.77,5.3c3.98,3.54,5.97,8.65,5.97,15.34v15.58c0,1.34,0.24,2.29,0.72,2.87
			s1.26,0.89,2.34,0.96v10.89c-2.17,0.45-4.05,0.67-5.64,0.67c-2.42,0-4.29-0.54-5.59-1.62c-1.31-1.08-2.12-2.52-2.44-4.3
			l-0.29-2.77c-2.23,2.93-4.94,5.16-8.12,6.69C991.83,405.74,988.43,406.5,984.79,406.5z M988.43,397.14c2.17,0,4.22-0.38,6.16-1.15
			c1.94-0.76,3.46-1.78,4.54-3.06c1.4-1.08,2.1-2.29,2.1-3.63v-5.73c-1.53-0.57-3.19-1.04-4.97-1.39c-1.78-0.35-3.5-0.53-5.16-0.53
			c-3.31,0-6.02,0.75-8.12,2.25c-2.1,1.5-3.15,3.39-3.15,5.69c0,2.17,0.83,3.97,2.48,5.4C983.97,396.42,986,397.14,988.43,397.14z"
			/>
	</g>
	<g>
		<path class="st0" d="M312.38,71.21c5.42-4.91,10.61-9.52,15.68-14.26c1.81-1.69,3.16-0.4,4.59,0.32
			c18.36,9.17,35.17,20.62,50.22,34.56c37.64,34.86,61.15,77.58,68.52,128.33c9.75,67.14-7.93,126.82-52.3,178.27
			c-19.83,22.99-43.91,40.53-71.32,53.58c-3.19,1.52-4.94,1.19-7.15-1.54c-3.95-4.87-8.22-9.5-12.64-13.94
			c-2.48-2.49-2.18-3.37,0.93-4.91c23.76-11.75,44.77-27.3,62.68-46.85c29.26-31.94,47.55-69.16,52-112.46
			c6.69-65.08-15.07-119.86-61.46-165.31c-13.63-13.35-29.08-24.28-45.79-33.47C315.14,72.84,313.95,72.12,312.38,71.21z"/>
		<path class="st0" d="M372.78,244.26c-0.53-40.33-14.66-73.89-39.89-103.08c-12.59-14.57-27.2-26.79-43.43-37.09
			c-2.19-1.39-2.92-2.15-0.49-4.14c4.19-3.43,8.14-7.16,12.07-10.89c1.5-1.43,2.72-1.56,4.48-0.48
			c50.93,30.99,85.66,73.78,94.54,134.02c6.92,46.9-5.88,89.26-34.28,126.95c-18.69,24.8-42.41,43.67-69.71,58.24
			c-2.5,1.33-3.9,1.08-5.68-1.08c-3.63-4.4-7.38-8.72-11.44-12.72c-2.76-2.72-2.76-3.91,0.82-5.92
			c18.67-10.45,35.39-23.48,49.84-39.3c23.44-25.65,38.25-55.4,42.34-90.16c0.08-0.71,0.1-1.42,0.14-2.13
			C372.36,251.93,372.61,247.38,372.78,244.26z"/>
		<path class="st0" d="M327.61,246.46c-0.36-27.55-10.93-51.88-28.82-73.38c-1.98-2.38-5.34-4.79-5.38-7.23
			c-0.04-2,3.89-4.09,6.1-6.11c2.53-2.31,5.21-4.46,7.6-6.9c1.86-1.89,3.08-2.11,5.16-0.08c22.65,22.13,38.46,47.92,43.09,79.75
			c4.24,29.14-2.26,56.04-17.15,81.13c-7.77,13.1-17.62,24.51-28.67,34.95c-1.95,1.84-3.13,2.21-5.06-0.07
			c-4.04-4.79-8.28-9.44-12.64-13.94c-2.09-2.16-1.77-3.45,0.22-5.52c15.55-16.23,27.05-34.82,32.45-56.87
			C326.52,263.98,327.57,255.67,327.61,246.46z"/>
		<g>
			<path class="st0" d="M195.99,226.26c1.32-4.47,3.5-6.02,8.01-3.83c2.78,1.35,6.13,1.31,9.22,0.38c1.74-0.52,3.05-1.71,3.09-3.65
				c0.05-1.98-1.6-2.55-3.11-2.99c-2.05-0.59-4.16-0.94-6.21-1.51c-3.54-0.99-7.03-2.28-7.27-6.67c-0.23-4.31,1.68-7.7,5.46-9.92
				c3.21-1.88,6.75-2.05,10.34-1.94c3.44,0.11,6.79,0.61,9.86,2.28c-1.35,3.86-3.35,5.92-7.85,4.03c-2.44-1.03-5.3-1.09-7.97-0.1
				c-1.56,0.58-2.81,1.5-2.84,3.33c-0.03,1.78,1.34,2.39,2.74,2.78c2.05,0.58,4.14,1.02,6.19,1.59c3.62,1,7.32,1.97,7.69,6.7
				c0.36,4.66-2.24,9.2-6.71,10.86C209.6,230.21,202.7,229.26,195.99,226.26z"/>
			<path class="st0" d="M181.54,228.36c-3.13,0-6.26-0.09-9.38,0.03c-2.15,0.08-2.99-0.23-2.47-2.81
				c1.76-8.77,3.34-17.57,4.72-26.41c0.59-3.79,3.25-2.41,5.2-2.5c2.99-0.13,1.56,2.13,1.35,3.35c-1.09,6.58-2.18,13.17-3.6,19.69
				c-0.59,2.71,0.21,3.16,2.62,3.06c3.69-0.16,7.39-0.15,11.08-0.02c1.09,0.04,3.32-1.06,2.89,1.58c-0.28,1.72,0.17,4.21-3.05,4.02
				c-3.12-0.19-6.25-0.04-9.38-0.04C181.54,228.33,181.54,228.35,181.54,228.36z"/>
			<path class="st0" d="M185.87,256.63c0,2.33,0.05,5.28-0.02,8.23c-0.04,1.51,0.78,3.56-2.19,3.48c-3.02-0.08-1.98-2.22-2.02-3.66
				c-0.12-4.69-0.15-9.38-0.06-14.07c0.02-1.29-0.89-3.11,0.8-3.82c1.61-0.68,2.43,1.01,3.44,1.95c3.56,3.26,7.13,6.51,10.77,9.82
				c0-2.77,0.04-6.07-0.02-9.37c-0.03-1.54-0.05-2.71,2.13-2.7c2.13,0.01,2.2,1.09,2.19,2.69c-0.05,5.4,0.02,10.81-0.03,16.21
				c-0.01,0.9,0.58,2.11-0.54,2.69c-1.27,0.66-2.05-0.38-2.9-1.15C193.53,263.41,189.61,259.95,185.87,256.63z"/>
			<path class="st0" d="M298.26,256.42c1.2,0.82,4.38-1.6,4.34,1.72c-0.04,3.14,2.14,7.17-2.7,9.22
				c-9.85,4.18-18.71-1.67-17.73-11.88c0.38-4,2.26-7.05,6.04-8.58c4.19-1.69,8.34-1.44,12.26,0.95c0.68,0.42,1.63,0.98,0.69,1.91
				c-0.79,0.78-1.17,2.58-2.94,1.51c-1.64-0.99-3.44-1.3-5.32-1.22c-3.03,0.13-5.24,1.59-6.04,4.5c-0.86,3.16-0.66,6.33,2.26,8.5
				c2.63,1.96,5.62,1.71,8.56,0.7c1.17-0.4,1.16-1.51,1.03-2.53c-0.14-1.15-1.04-1.17-1.92-1.17c-0.57,0-1.14-0.01-1.71,0
				c-1.21,0.02-2.25-0.05-2.25-1.75c0-1.58,0.8-1.94,2.14-1.89C295.97,256.45,296.96,256.42,298.26,256.42z"/>
			<path class="st0" d="M199.91,285.97c1.15,0.91,4.33-1.66,4.34,1.63c0.01,3.26,2.16,7.48-3.1,9.4c-8.67,3.16-16.8-1-17.35-9.18
				c-0.66-9.72,8.17-15.61,16.97-11.24c1.01,0.5,3.2,0.62,1.99,2.78c-0.87,1.55-1.89,1.8-3.79,1.01
				c-6.55-2.68-11.69,1.07-10.75,7.57c0.71,4.86,6.51,7.67,10.9,5.37c1.1-0.57,1.43-1.31,1.33-2.36c-0.19-2.12-1.87-1.25-2.96-1.33
				c-1.43-0.11-2.94,0.2-2.83-2.06c0.11-2.1,1.65-1.48,2.8-1.59C198.16,285.92,198.87,285.97,199.91,285.97z"/>
			<path class="st0" d="M176.13,246.75c-2.48,3.82-7.44,6.34-7.17,9.76c0.27,3.37,4.28,6.44,6.64,9.65c0.4,0.54,0.72,1.14,1.14,1.82
				c-7.24,1.96-7.5-5.4-11.45-7.89c-2.24,1.35-3.52,3.3-3.11,6.17c0.28,1.89-0.9,1.99-2.35,2.06c-1.67,0.08-1.84-0.81-1.83-2.11
				c0.02-5.85,0.02-11.7-0.04-17.55c-0.01-1.38,0.32-2.11,1.87-2.11c1.57,0,2.39,0.44,2.33,2.18c-0.09,2.42-0.02,4.84-0.02,7.65
				C167.41,253.82,168.1,245.23,176.13,246.75z"/>
			<path class="st0" d="M135.99,256.58c0.35-2.7-1.59-7.36,0.73-9.4c1.97-1.73,6.51-0.53,9.91-0.62c0.71-0.02,1.42,0,2.14-0.01
				c1.43-0.02,2.9-0.28,2.84,2.01c-0.05,2.07-1.41,1.73-2.65,1.74c-1.99,0.02-4,0.16-5.98-0.02c-2.31-0.21-2.79,0.72-2.84,2.89
				c-0.05,2.45,0.97,2.9,3.04,2.72c1.56-0.14,3.13,0,4.7-0.06c1.22-0.04,1.82,0.38,1.86,1.69c0.04,1.4-0.34,2.15-1.9,2.08
				c-1.71-0.08-3.42,0.07-5.13-0.02c-1.7-0.09-2.57,0.26-2.55,2.3c0.03,2.01,0.55,2.85,2.65,2.71c2.41-0.15,4.84-0.03,7.26-0.07
				c1.23-0.02,2.18,0.04,2.23,1.72c0.05,1.82-0.83,2.08-2.34,2.06c-3.85-0.06-7.7-0.13-11.54,0.04c-2.28,0.1-2.54-0.99-2.47-2.84
				C136.07,262.8,135.99,260.09,135.99,256.58z"/>
			<path class="st0" d="M228.93,275.48c2.28,0,4.56,0.03,6.84-0.01c1.44-0.03,1.99,0.54,1.99,2.02c0,1.58-0.76,2.14-2.08,1.84
				c-5.19-1.19-4.94,2.11-4.8,5.55c0.13,3.41-0.02,6.84,0.07,10.26c0.04,1.64-0.51,2.23-2.19,2.24c-1.67,0.01-2.24-0.54-2.21-2.2
				c0.08-4.13-0.18-8.27,0.07-12.39c0.18-2.9-0.85-3.73-3.59-3.48c-1.26,0.11-3.31,1.04-3.35-1.77c-0.04-2.73,1.91-1.92,3.28-1.99
				c1.99-0.11,3.99-0.03,5.98-0.03C228.93,275.52,228.93,275.5,228.93,275.48z"/>
			<path class="st0" d="M242.55,268.11c-7.5,0.05-7.5,0.05-7.51-7.57c-0.01-3.71-0.04-7.42,0-11.12c0.01-1.45-0.57-3.21,2.07-3.24
				c2.51-0.03,2.26,1.49,2.26,3.09c-0.01,3.99,0.13,7.99-0.02,11.98c-0.08,2.18,0.5,3.1,2.82,2.88c2.12-0.2,4.28-0.01,6.41-0.07
				c1.31-0.03,2.15,0.16,2.14,1.81c-0.01,1.6-0.44,2.37-2.17,2.28C246.55,268.03,244.55,268.11,242.55,268.11z"/>
			<path class="st0" d="M272.55,297.32c-7.42,0.03-7.42,0.03-7.44-7.59c-0.01-3.99,0.04-7.97-0.05-11.96
				c-0.03-1.61,0.45-2.31,2.16-2.28c1.61,0.03,2.26,0.54,2.23,2.23c-0.09,4.27,0.12,8.55-0.06,12.81c-0.1,2.33,0.73,2.97,2.9,2.79
				c1.98-0.17,3.98-0.02,5.97-0.06c1.39-0.03,2.43,0.02,2.51,1.92c0.09,2.19-1.13,2.2-2.68,2.15
				C276.26,297.28,274.4,297.32,272.55,297.32z"/>
			<path class="st0" d="M122.05,246.77c2.28,0,4.56,0.05,6.84-0.02c1.4-0.04,2.05,0.33,2.05,1.9c0,1.6-0.76,2.06-2.08,1.81
				c-4.53-0.87-5.16,1.5-4.82,5.26c0.3,3.25,0.04,6.55,0.09,9.83c0.02,1.64,0.21,3.06-2.3,2.96c-2.21-0.08-2.09-1.31-2.08-2.8
				c0.02-3.99-0.17-7.99,0.04-11.97c0.14-2.66-0.71-3.54-3.36-3.32c-1.22,0.1-3.39,1.2-3.54-1.58c-0.17-3.1,2.19-1.87,3.6-2
				c1.84-0.17,3.7-0.04,5.55-0.04C122.05,246.78,122.05,246.78,122.05,246.77z"/>
			<path class="st0" d="M214.47,286.7c0,2.71-0.06,5.41,0.02,8.12c0.05,1.7-0.34,2.59-2.33,2.61c-2.12,0.02-2.23-1.1-2.23-2.68
				c0.01-5.55,0.01-11.11-0.11-16.66c-0.04-1.77,0.41-2.61,2.35-2.61c2.01,0,2.32,1,2.26,2.69c-0.1,2.85-0.03,5.7-0.03,8.55
				C214.43,286.7,214.45,286.7,214.47,286.7z"/>
			<path class="st0" d="M312.67,256.91c0,2.84-0.04,5.68,0.02,8.53c0.03,1.44-0.1,2.49-1.98,2.48c-1.7-0.01-2.59-0.38-2.55-2.37
				c0.1-5.68,0.07-11.37-0.04-17.05c-0.04-1.85,0.6-2.47,2.44-2.48c1.83-0.01,2.1,0.89,2.08,2.37c-0.05,2.84-0.02,5.68-0.02,8.53
				C312.63,256.91,312.65,256.91,312.67,256.91z"/>
			<path class="st0" d="M177.69,286.65c0,2.83-0.1,5.67,0.03,8.49c0.09,1.93-0.72,2.38-2.48,2.4c-1.86,0.03-2.02-0.95-2.02-2.39
				c0.02-5.66,0.01-11.33-0.06-16.99c-0.02-1.48,0.19-2.4,2.01-2.39c1.74,0.01,2.6,0.43,2.5,2.38c-0.14,2.82-0.04,5.66-0.04,8.49
				C177.66,286.65,177.68,286.65,177.69,286.65z"/>
			<path class="st0" d="M249.42,197.18c-4.93-1.11-9.96-0.27-14.92-0.6c-2.51-0.16-3.13,1.04-3.49,3.15
				c-1.42,8.43-3,16.83-4.37,25.26c-0.18,1.11-1.94,3.44,1.18,3.3c1.9-0.08,5.11,1.49,5.06-2.44c-0.07-5.62,2.99-6.86,7.8-6.19
				c0.97,0.14,1.99-0.05,2.98-0.17c7.73-0.94,12.61-6.51,12.5-14.24C256.09,200.89,253.89,198.19,249.42,197.18z M242.17,214.26
				c-6.88,0.92-7.16,0.65-6.06-6.04c0.98-5.98,0.98-5.98,6.21-5.98c2.56,0.22,6.4-0.65,6.74,4.3
				C249.34,210.7,246.65,213.66,242.17,214.26z"/>
			<path class="st0" d="M265.45,245.92c-6.72,0.09-11.24,4.71-11.16,11.4c0.09,6.68,4.67,11.12,11.46,11.1
				c6.78-0.02,11.33-4.5,11.34-11.18C277.11,250.36,272.44,245.83,265.45,245.92z M265.62,264.32c-4.22-0.04-6.9-3.06-6.71-7.58
				c0.18-4.23,2.99-6.87,7.14-6.71c3.99,0.16,6.72,3.19,6.61,7.35C272.54,261.53,269.67,264.36,265.62,264.32z"/>
			<path class="st0" d="M218.16,246.08c-6.91-0.14-11.64,4.48-11.63,11.36c0.01,6.72,4.53,11.21,11.31,11.23
				c6.78,0.03,11.35-4.42,11.42-11.11C229.31,250.85,224.83,246.21,218.16,246.08z M217.85,264.65c-3.98,0-6.75-2.94-6.77-7.19
				c-0.03-4.34,2.56-7.17,6.64-7.25c4.04-0.09,6.93,2.72,7.09,6.9C224.97,261.38,221.95,264.66,217.85,264.65z"/>
			<path class="st0" d="M251.2,277.7c-0.97-2.04-2.41-3.92-4.02-0.66c-3.25,6.57-6.19,13.28-9.29,20.01
				c2.88,0.69,4.67,0.39,5.79-2.43c0.9-2.26,9.88-2.26,10.75,0.02c1.13,2.92,2.96,3.02,5.75,2.34
				C257.08,290.3,254.18,283.98,251.2,277.7z M245.67,289.4c1-2.47,1.94-4.79,3.29-8.12c1.36,3.21,2.33,5.5,3.44,8.12
				C250.06,289.4,248.04,289.4,245.67,289.4z"/>
			<path class="st0" d="M167.03,283.16c-1.27-5.2-4.71-7.75-11.62-7.6l0.03-0.02l-7.33,0.24v0.55v21.19l5.12-0.01
				c0.63,0.01,1.35,0.01,2.16,0l0.05,0l0,0c0.28,0,0.55-0.01,0.85-0.01C164.71,297.36,169.08,291.53,167.03,283.16z M162.32,289.94
				c-1.09,2.72-3.23,3.66-5.51,3.67v0h-4.38v-14.01l3.41,0.02c0.19-0.01,0.38-0.02,0.57-0.02c0.08,0,0.16,0.02,0.24,0.02l0.17,0
				v0.01c2.92,0.19,5.04,1.78,5.84,4.46C163.26,286.11,163.07,288.08,162.32,289.94z"/>
		</g>
		<path class="st0" d="M0,236.14c16.83,0,33.5,0,50.35,0c1.4-7.37,2.75-14.45,4.17-21.88c-15.6-6.22-31.17-12.43-47.16-18.8
			c5.03-12.69,9.95-25.08,15-37.83c15.92,6.31,31.5,12.48,47.26,18.73c3.65-5.75,7.22-11.36,11.01-17.31
			c-12.25-11.41-24.54-22.85-37.24-34.69c9.18-9.89,18.25-19.66,27.7-29.83c12.51,11.62,24.89,23.12,37.27,34.61
			c5.94-4.36,11.66-8.56,17.65-12.95c-7.18-15.16-14.35-30.32-21.74-45.95c12.21-5.8,24.25-11.52,36.73-17.45
			c1.43,2.96,2.77,5.73,4.09,8.52c5.37,11.33,10.81,22.63,16.06,34.02c1.23,2.66,2.34,3.41,5.45,2.54
			c7.67-2.15,15.48-3.91,23.32-5.3c3.17-0.56,4.26-1.44,4.21-4.76c-0.24-13.98-0.19-27.96-0.24-41.94c-0.01-1.53,0-3.05,0-4.85
			c13.73,0,26.95,0,40.66,0c0,24.87,0,49.75,0,74.88c-48.5-4.21-89.99,10.64-122.57,47.32c-26.09,29.37-37.4,64.29-34.61,103.41
			c5.48,76.97,74,138.77,158.06,129.34c0,24.91,0,49.77,0,75.04c-13.29,0-26.58,0-40.37,0c0-16.77,0-33.42,0-50.15
			c-6.98-1.39-13.49-2.83-20.06-3.84c-0.93-0.14-2.7,1.62-3.21,2.85c-5.39,13.19-10.59,26.46-15.85,39.7
			c-0.47,1.17-1,2.32-1.72,3.97c-12.54-4.97-24.91-9.88-37.71-14.95c6.27-15.83,12.43-31.39,18.65-47.1
			c-5.81-3.71-11.43-7.29-17.36-11.07c-11.39,12.24-22.82,24.52-34.54,37.13c-9.96-9.26-19.73-18.34-29.82-27.72
			c11.64-12.54,23.06-24.84,34.5-37.17c-4.34-5.93-8.54-11.66-12.96-17.7c-15.1,7.15-30.24,14.32-45.82,21.69
			c-5.83-12.28-11.54-24.32-17.46-36.77c15.38-7.32,30.52-14.52,45.59-21.69c-2.38-10.47-4.7-20.7-7.09-31.22
			c-16.44,0-33.08,0-50.18,0C0,263.42,0,250.12,0,236.14z M229.71,402.69c-42.24,2.17-79.39-9.7-110.45-37.97
			C88.09,336.35,72,300.62,71.12,258.47c-0.78-37.45,11.31-70.69,35.99-98.79c32.18-36.64,73.35-52.62,121.58-50.34
			c0-20.93,0-41.61,0-62.17c-9.97,0-19.31,0-28.65,0c0,14.08,0.01,27.8,0,41.53c0,6.9-1.49,8.33-8.11,9.61
			c-8.38,1.62-16.72,3.51-24.99,5.61c-5.66,1.44-7.77,0.82-10.25-4.36c-4.3-8.98-8.52-18-12.8-26.99c-1.86-3.92-3.8-7.8-5.74-11.8
			c-8.97,4.26-17.4,8.27-25.99,12.35c6.18,13.05,12.16,25.63,18.11,38.23c2.92,6.18,2.31,7.85-3.26,11.64
			c-4.59,3.12-9.04,6.47-13.44,9.87c-4,3.1-6.44,3.19-10.14-0.17c-3.27-2.97-6.47-6.02-9.71-9.03c-7.38-6.85-14.75-13.7-22.32-20.72
			c-6.68,7.21-13.03,14.06-19.48,21.01c1.66,1.65,2.92,2.98,4.26,4.23c9.18,8.55,18.38,17.08,27.56,25.63
			c3.69,3.43,3.85,6.02,1.07,10.06c-2.9,4.22-5.67,8.54-8.33,12.93c-3.49,5.76-5.26,6.53-11.47,4.13
			c-7.04-2.72-14.02-5.58-21.03-8.36c-6.02-2.39-12.05-4.75-18.29-7.2c-3.64,9.19-7.07,17.84-10.56,26.63
			c1.74,0.78,3.01,1.4,4.32,1.92c11.77,4.68,23.56,9.31,35.31,14.02c5.44,2.18,6.4,4.35,5.24,9.85c-1.26,5.98-2.34,12-3.26,18.04
			c-0.55,3.65-2.47,5.66-6,6.18c-1.4,0.21-2.85,0.13-4.27,0.13c-12.41,0.03-24.82-0.02-37.23,0.16c-1.27,0.02-3.59,1.34-3.61,2.1
			c-0.26,8.65-0.16,17.3-0.16,26.39c2.26,0,3.81,0,5.35,0c12.41,0,24.82-0.04,37.23,0.03c6.15,0.04,7.5,1.5,8.76,7.54
			c1.83,8.77,3.84,17.51,5.99,26.2c1.27,5.14,0.48,7.43-4.2,9.66c-7.84,3.74-15.72,7.4-23.57,11.12
			c-5.09,2.41-10.16,4.87-15.41,7.39c4.22,8.91,8.21,17.35,12.26,25.9c1.13-0.51,1.9-0.83,2.66-1.19
			c11.84-5.62,23.65-11.29,35.51-16.85c6.02-2.82,7.7-2.28,11.48,3.02c2.9,4.06,5.7,8.19,8.78,12.11c4.89,6.22,4.86,7.96-0.58,13.77
			c-9.24,9.88-18.42,19.81-27.89,30.01c7.04,6.55,13.9,12.93,21.41,19.93c0.98-1.29,1.76-2.49,2.72-3.53
			c8.7-9.43,17.43-18.82,26.14-28.24c3.67-3.96,5.99-4.27,10.4-1.43c4.79,3.08,9.53,6.26,14.45,9.12c3.72,2.16,4.83,5.06,3.42,8.94
			c-1.46,4-3.13,7.93-4.7,11.89c-3.79,9.6-7.57,19.21-11.46,29.09c9,3.56,17.67,6.99,26.48,10.47c0.76-1.56,1.39-2.67,1.85-3.84
			c4.62-11.62,9.26-23.24,13.8-34.9c2.46-6.3,4.29-7.25,11.06-5.75c5,1.11,10.03,2.15,15.09,2.86c6.46,0.91,8.3,2.57,8.37,8.93
			c0.12,10.67,0.09,21.34,0.12,32.01c0.01,3.23,0,6.46,0,9.93c9.69,0,19.11,0,28.69,0C229.71,444.14,229.71,423.67,229.71,402.69z"
			/>
	</g>
</g>
</svg>
